/* XPM */
static char *_6e62c47f0e943e98374af599592dd8b[] = {
/* columns rows colors chars-per-pixel */
"48 48 158 2 ",
"   c None",
".  c #221D2D",
"X  c #261F31",
"o  c #272033",
"O  c #2A2336",
"+  c #2D263B",
"@  c #30283E",
"#  c #342B43",
"$  c #382F49",
"%  c #3B324D",
"&  c #3E3452",
"*  c #413755",
"=  c #423559",
"-  c #45395C",
";  c #493D5F",
":  c #453760",
">  c #4A3D63",
",  c #4E3F69",
"<  c #454443",
"1  c #484746",
"2  c #474649",
"3  c #48464C",
"4  c #4D4C4E",
"5  c #4E4A54",
"6  c #504C56",
"7  c #524B5D",
"8  c #555453",
"9  c #585756",
"0  c #585857",
"q  c #565359",
"w  c #5A575D",
"e  c #5B5B5C",
"r  c #4D4066",
"t  c #4F4368",
"y  c #53456D",
"u  c #595265",
"i  c #5B526A",
"p  c #554572",
"a  c #564871",
"s  c #584876",
"d  c #5B4B7B",
"f  c #5F5471",
"g  c #605476",
"h  c #655F70",
"j  c #615579",
"k  c #635878",
"l  c #636362",
"z  c #6D6C6C",
"x  c #706F6F",
"c  c #6C6477",
"v  c #747473",
"b  c #79767E",
"n  c #797979",
"m  c #5F4D81",
"M  c #604F82",
"N  c #645286",
"B  c #66538B",
"V  c #69568E",
"C  c #6D5C8F",
"Z  c #6E5B92",
"A  c #715E94",
"S  c #745E9D",
"D  c #6F608D",
"F  c #756593",
"G  c #75619E",
"H  c #78669B",
"J  c #7C6B9D",
"K  c #7D7292",
"L  c #755FA0",
"P  c #7661A0",
"I  c #7964A2",
"U  c #7E6AA5",
"Y  c #7D67A9",
"T  c #7F68AA",
"R  c #887D9E",
"E  c #816AAE",
"W  c #8B7EA5",
"Q  c #8673AA",
"!  c #8D7CAD",
"~  c #856EB3",
"^  c #8770B6",
"/  c #8870B7",
"(  c #8F7EB1",
")  c #868585",
"_  c #898887",
"`  c #8E8C8D",
"'  c #91918F",
"]  c #868090",
"[  c #8C8894",
"{  c #969694",
"}  c #9D9D9C",
"|  c #8E80A8",
" . c #928AA3",
".. c #958BA9",
"X. c #988EAB",
"o. c #9A92A9",
"O. c #9686B5",
"+. c #9888B7",
"@. c #9C8CBA",
"#. c #9E91B5",
"$. c #9F91BB",
"%. c #A095B6",
"&. c #A39CB1",
"*. c #A194BD",
"=. c #A498BD",
"-. c #A7A7A5",
";. c #ADADAC",
":. c #B1B0AF",
">. c #A9A4B0",
",. c #AEA8BA",
"<. c #B3B2B1",
"1. c #B8B7B6",
"2. c #B8B8B6",
"3. c #BCBCBB",
"4. c #A597C0",
"5. c #A799C1",
"6. c #A99CC3",
"7. c #AEA2C5",
"8. c #B1A6C7",
"9. c #B4ACC3",
"0. c #B1A5C9",
"q. c #BAAECD",
"w. c #B5B0C0",
"e. c #BCB8C0",
"r. c #BCB3CE",
"t. c #BEB8CA",
"y. c #BCB1D0",
"u. c #C4BBD4",
"i. c #C4C4C4",
"p. c #C5C0CE",
"a. c #CCCCCC",
"s. c #D0CFCF",
"d. c #C7C2D0",
"f. c #CBC3DA",
"g. c #D0C9DD",
"h. c LightGray",
"j. c #D5D2DA",
"k. c #DCDCDB",
"l. c #E1E1DF",
"z. c #D7D0E1",
"x. c #D9D3E2",
"c. c #E0DCE6",
"v. c #E2DEEA",
"b. c #E5E4E3",
"n. c #E9E8E7",
"m. c #E5E2EA",
"M. c #ECEBED",
"N. c #F0EFED",
"B. c #F0F0EE",
"V. c #EAE7F0",
"C. c #EEECF1",
"Z. c #F0EDF3",
"A. c #F4F3F4",
"S. c #F8F7F6",
"D. c #F9F8F7",
"F. c #F7F6F8",
"G. c #F8F7F9",
"H. c #FFFEFD",
/* pixels */
"                                                                                                ",
"                                            X &                                                 ",
"                                  + O o . . X * - > , p p s d                                   ",
"                        % % $ # @ + O o X . . & : > , , p s d m N B Z Z S                       ",
"            r > ; = * & % $ $ # @ + O o .         : > y p s d m N N Z Z S G I Y ~ ~             ",
"        y t r ; - - * & % $ #                                   M N V Z A G I Y T ~             ",
"        y t r ; -                 H.H.H.H.H.H.H.H.H.H.H.H.H.H.                  E ~ ~           ",
"        y y             H.H.H.H.H.H.H.H.H.H.H.H.H.H.H.H.H.H.H.H.H.H.H.H.H.H.H.    ~ /           ",
"        y r   H.H.H.H.H.H.H.H.H.H.H.H.H.H.H.H.H.H.H.H.H.H.H.H.H.H.H.D.D.H.D.H.    ~ /           ",
"        y r   H.H.H.H.H.H.H.H.H.H.H.H.H.H.H.H.H.H.H.H.H.H.H.D.H.H.D.H.H.H.H.H.    ~ /           ",
"      a y ,   H.H.H.H.H.H.H.H.H.H.H.H.H.H.H.H.H.H.H.H.D.H.H.H.H.H.H.H.H.D.D.H.    ~ /           ",
"      a y t   H.H.H.H.H.H.H.H.H.H.f.7.7.6.=.6.=.*.*.@.*.=.g.B.H.H.H.H.H.H.H.D.    ~ /           ",
"      a y r   H.H.H.H.H.H.H.A.a.1.W L L S S S G G S G S G I @.v.H.H.H.D.H.D.H.    ~ ^           ",
"      a y r   H.H.H.H.H.H.H.b._ q k Z C C C C C A C C A H I S ( n.H.H.H.H.H.H.    ~ ^           ",
"      a y r   H.H.H.H.H.H.H.n._ 9 0 w w w w w w w q 3 3 u F G G =.D.H.H.H.H.H.    ~ ~           ",
"      a y r   H.H.H.H.H.H.H.A.a.3.3.3.3.3.3.3.3.3.:._ 9 < w F I E k.H.H.H.D.H.    ~ ^           ",
"      a y t   H.H.H.H.H.H.H.H.H.H.H.H.D.D.H.H.H.H.G.b.-.0 < c G S u.H.H.H.D.H.    ~ ~           ",
"      a y     H.H.H.H.H.H.H.H.H.H.H.H.H.H.H.G.D.H.H.H.n.` 1 u H S 8.H.H.H.H.H.    ~ ~           ",
"      a y     H.H.H.H.H.H.H.H.V.0.6.4.4.*.*.$.@.6.A.H.D.:.6 6 H G 6.H.H.H.H.D.    ~ /           ",
"      a y     H.H.H.H.H.H.l.3.>.I L L L G G S S Q Z.H.H.3.8 6 F G =.H.H.H.H.H.    ~ ~           ",
"      a y     H.H.H.H.H.H.2.l q k j f j f f K 7.u.D.H.H.1.8 6 G G q.H.H.H.H.H.    ~ ~           ",
"      a a     H.H.H.H.H.H.i.n z x x v v v K -.B.H.H.H.D.;.4 j G I j.H.H.H.H.H.    ~ ^           ",
"      a y     H.H.H.H.H.H.C.k.k.k.k.c.b.l.n.B.H.H.H.D.b.` g S G +.S.H.H.H.H.H.    ~ ~           ",
"      a y     H.H.H.H.H.H.H.H.H.H.H.M.v.x.g.u.r.0.6.*.! H G S Q j.H.H.D.H.H.H.    ~ ~           ",
"      a y     H.H.H.H.H.H.H.H.G.M.j.! Y I P P G S S G S I G Q g.H.H.H.H.H.H.H.    ~ /           ",
"      a a     H.H.H.H.H.H.H.H.h.` b G P I P G P G S A F J @.c.H.D.H.H.D.H.D.H.    ~ ~           ",
"      a y     H.H.H.H.H.H.H.H.3.0 3 A P Z i u u u i c R 3.M.H.H.H.H.H.D.H.D.H.    ~ /           ",
"      a p     H.H.H.H.H.H.H.H.i.0 3 F H J ` ` { { } 1.k.D.H.H.H.D.H.H.H.H.H.H.    ~ ~           ",
"      a a     H.H.H.H.H.H.H.H.i.0 3 F L O.M.A.A.A.A.G.H.H.H.H.H.H.H.H.H.H.H.H.    ~ ~           ",
"      a y     H.H.H.H.H.H.H.H.i.e 3 Z L O.G.H.H.H.H.H.H.H.H.H.H.H.H.H.H.H.H.H.    ~ ~           ",
"      a y     H.H.H.H.H.H.H.H.i.e 3 F L O.H.H.H.H.H.H.H.H.H.H.H.H.H.H.D.H.H.H.    ~ ^           ",
"      a p     H.H.H.H.H.H.H.H.i.l 3 Z L O.H.H.H.H.H.H.H.G.A.A.A.A.N.B.H.H.H.H.    ~ ~           ",
"      a a     H.H.H.H.H.H.H.H.a.e 3 A P +.G.H.G.y.F.H.q.r.$.5.f.$.8.g.H.H.H.H.    ~ ~           ",
"      a y     H.H.H.H.H.H.H.H.a.l 3 D P +.G.H.F.#.C.H.#.m.9.d.m.W 7.j.H.H.H.H.    E ~           ",
"      s a y     H.H.H.H.H.H.H.h.l 2 D G O.G.H.F...m.F...m.w.t.m.R d.c.H.H.H.    E ~             ",
"        y y t     H.H.H.H.H.H.h.l 2 D I +.G.H.G. . .,.&.m.p.d.V. .o.w.H.H.      Y E             ",
"          y r r     H.H.H.H.H.j.z 4 [ g.v.H.H.H.A.M.Z.F.H.H.H.H.F.F.H.H.      Y E               ",
"            r r >       H.H.H.M.:.} i.F.H.H.H.H.H.H.H.H.H.H.H.H.H.H.H.    S P Y                 ",
"              r ; ;       H.H.H.G.A.D.H.H.H.H.H.H.H.H.H.H.H.H.H.H.H.    A S P                   ",
"                ; - =         H.H.H.H.H.H.H.H.H.H.H.H.H.H.H.H.H.    V Z Z S                     ",
"                  - = * &         H.H.H.H.H.H.H.H.H.H.H.H.H.      N B Z A                       ",
"                      * % % %         H.H.H.H.H.H.H.H.H.      d M N V                           ",
"                        % % $ # #           H.H.H.        p d d M N                             ",
"                            $ $ # @ + O             : , p p d d                                 ",
"                                # + + O o . . o = : > t y p                                     ",
"                                      O X . . O = : > ,                                         ",
"                                          . . O = :                                             ",
"                                                                                                "
};
